<svg class="svg-icon" style="width: 1em; height: 1em;vertical-align: middle;fill: currentColor;overflow: hidden;" viewBox="0 0 1024 1024" version="1.1" xmlns="http://www.w3.org/2000/svg"><path d="M362.666667 234.666667c0-42.666667-128-128-213.333334-64-61.546667 46.144 0 234.666667 0 234.666666l213.333334-170.666666zM661.333333 234.666667c0-42.666667 128-128 213.333334-64 61.546667 46.144 0 234.666667 0 234.666666l-213.333334-170.666666z" fill="#795548" /><path d="M917.333333 533.333333c0 64-128 384-405.333333 384S106.666667 597.333333 106.666667 533.333333C149.333333 277.333333 362.666667 128 512 234.666667c149.333333-106.666667 362.666667 42.666667 405.333333 298.666666z" fill="#795548" /><path d="M876.245333 400.277333c7.274667-23.914667 37.269333-129.194667 20.864-192.021333-53.397333-18.048-114.026667 5.568-149.930666 34.645333 51.008 34.645333 96.768 88.768 129.066666 157.376zM276.842667 242.901333c-35.925333-29.077333-96.554667-52.693333-149.952-34.645333-16.405333 62.848 13.589333 168.106667 20.885333 192.021333 32.277333-68.608 78.037333-122.730667 129.066667-157.376z" fill="#4E342E" /><path d="M394.666667 426.666667c-41.173333 0-74.666667 33.493333-74.666667 74.666666s33.493333 74.666667 74.666667 74.666667 74.666667-33.493333 74.666666-74.666667-33.493333-74.666667-74.666666-74.666666zM629.333333 426.666667c-41.173333 0-74.666667 33.493333-74.666666 74.666666s33.493333 74.666667 74.666666 74.666667 74.666667-33.493333 74.666667-74.666667-33.493333-74.666667-74.666667-74.666666z" fill="#BCAAA4" /><path d="M640 426.666667H384c21.333333 0 42.666667 30.869333 42.666667 42.666666l-42.666667 256c0 42.666667 21.333333 64 42.666667 64h64v-42.666666h42.666666v42.666666h64c21.333333 0 42.666667-21.333333 42.666667-64l-42.666667-256c0-11.797333 21.333333-42.666667 42.666667-42.666666z" fill="#BCAAA4" /><path d="M597.333333 789.333333h-170.666666c-4.394667 0-8.746667-1.130667-12.949334-2.944C429.888 813.184 467.818667 832 512 832s82.112-18.816 98.282667-45.610667A32.789333 32.789333 0 0 1 597.333333 789.333333zM576 725.333333c0 11.797333-30.869333 42.666667-42.666667 42.666667h-42.666666c-11.776 0-42.666667-30.869333-42.666667-42.666667v-42.666666a21.333333 21.333333 0 0 1 21.333333-21.333334h85.333334a21.333333 21.333333 0 0 1 21.333333 21.333334v42.666666z" fill="#3E2723" /><path d="M220.074667 292.032a334.72 334.72 0 0 1 56.661333-49.066667A192.426667 192.426667 0 0 0 207.488 207.786667a53.12 53.12 0 0 0 12.586667 84.245333zM803.946667 292.032a53.12 53.12 0 0 0 12.565333-84.266667 192.704 192.704 0 0 0-69.269333 35.178667 334.144 334.144 0 0 1 56.704 49.088z" fill="#212121" /><path d="M394.666667 501.333333m-32 0a32 32 0 1 0 64 0 32 32 0 1 0-64 0Z" fill="#212121" /><path d="M629.333333 501.333333m-32 0a32 32 0 1 0 64 0 32 32 0 1 0-64 0Z" fill="#212121" /></svg>